# xmcd
#
# Track frame offsets:
#	180
#	12654
#	26272
#	37582
#	46709
#	59053
#	70400
#	82317
#	94352
#	106520
#	117042
#	129420
#	141247
#	152900
#	165370
#	177415
#
# Disc length: 2503 seconds
#
# Revision: 0
# Processed by: cddbd v1.5.2PL0 Copyright (c) Steve Scherf et al.
# Submitted via: audiograbber 1.83.01
#
DISCID=cf09c510
DTITLE=Various Artist - Country Legends Vol.3 - CD3
DYEAR=2005
DGENRE=Country
TTITLE0=CHUK WAGON GANG - After The Sunrise
TTITLE1=SONS OF DIXIE - Don´t Ever Go Wrong
TTITLE2=ROY ACUFF - Fireball Mail
TTITLE3=GENE AUTREY - In Old Capistrano
TTITLE4=JIMMY WYBLE - Goodbye My Heart
TTITLE5=CHET ATKINS - Canned Heat
TTITLE6=BUCK ROBERTS - Big Beaver
TTITLE7=ROY ACUFF - I Saw The Light
TTITLE8=HANK WILLIAMS - Honky Tonkin´
TTITLE9=ART GUNN - Boogie Woogie Blues
TTITLE10=PEE WEE HUGHES - Country Boy Blues
TTITLE11=JESSE JAMES - Rag Mop
TTITLE12=HANK WILLIAMS - Lomg Gone Lonesome Blues
TTITLE13=HANK WILLIAMS - I Just Don´t Like This Kind Of Living
TTITLE14=L. FLATT and E. SCRUGGS - Don´t Get Above Your Raisin´
TTITLE15="TENNESSEE" ERNIE FORD - Taylor Made Woman
EXTD=
EXTT0=
EXTT1=
EXTT2=
EXTT3=
EXTT4=
EXTT5=
EXTT6=
EXTT7=
EXTT8=
EXTT9=
EXTT10=
EXTT11=
EXTT12=
EXTT13=
EXTT14=
EXTT15=
PLAYORDER=
